#!OML:ASF F:\twosubjects\two\Thursday\Session 1\Rory.ASF
:FULLY-SPECIFIED
:DEGREES
517
root 11.144 18.9293 9.99942 -150.394 -83.0337 153.849
lowerback -6.41424 -2.74692 -4.50621
upperback 0.0814263 -3.28958 -1.90992
thorax 3.82137 -1.71682 0.225807
lowerneck 3.31046 -15.9808 -15.2177
upperneck 15.4307 -26.0503 17.9236
head 8.66434 -12.9306 5.73728
rclavicle 2.57364e-014 4.21423e-014
rhumerus -42.1125 30.3736 -104.105
rradius 108.19
rwrist 11.0215
rhand -40.4245 41.0607
rfingers 7.12502
rthumb -13.377 11.5102
lclavicle 2.57364e-014 4.21423e-014
lhumerus -20.2892 -27.6669 84.7296
lradius 119.477
lwrist -22.7379
lhand -18.7138 46.0475
lfingers 7.12502
lthumb 7.58138 75.8916
rfemur 0.111092 8.14574 12.8002
rtibia 7.22151
rfoot -6.86287 -8.19855
rtoes -14.7209
lfemur 0.617137 -7.01535 -18.8429
ltibia 8.02561
lfoot -11.8545 12.2725
ltoes 15.0984
518
root 11.1422 18.9281 9.99943 -150.346 -82.9272 153.766
lowerback -6.39585 -2.79117 -4.64715
upperback 0.0114562 -3.3442 -1.83859
thorax 3.75298 -1.74526 0.37533
lowerneck 3.2935 -15.7724 -15.37
upperneck 15.618 -25.7719 17.8469
head 8.68777 -12.8067 5.77988
rclavicle 3.13893e-014 -3.57812e-015
rhumerus -42.3335 30.9901 -103.879
rradius 109.069
rwrist 11.042
rhand -41.5602 40.364
rfingers 7.12502
rthumb -14.4714 10.8886
lclavicle 3.13893e-014 -3.57812e-015
lhumerus -20.8045 -26.7943 84.9438
lradius 119.627
lwrist -22.73
lhand -18.3115 46.1331
lfingers 7.12502
lthumb 7.96967 75.9629
rfemur 0.146383 8.24863 12.7266
rtibia 7.19631
rfoot -6.90439 -8.25664
rtoes -15.6557
lfemur 0.700374 -6.92916 -18.9339
ltibia 8.00288
lfoot -11.9249 12.2352
ltoes 16.198
519
root 11.1393 18.9263 10.0023 -149.146 -82.8913 152.56
lowerback -6.40172 -2.838 -4.80094
upperback -0.0636367 -3.39924 -1.8388
thorax 3.68965 -1.77407 0.456963
lowerneck 3.12654 -15.6342 -15.3802
upperneck 16.0038 -25.5766 17.5791
head 8.77256 -12.7092 5.71164
rclavicle 1.53219e-014 1.78906e-014
rhumerus -42.3697 31.2329 -103.584
rradius 109.982
rwrist 10.9607
rhand -42.0311 38.2818
rfingers 7.12502
rthumb -14.9251 8.83949
lclavicle 1.53219e-014 1.78906e-014
lhumerus -21.2843 -25.966 85.1435
lradius 119.912
lwrist -21.9397
lhand -17.8421 45.8675
lfingers 7.12502
lthumb 8.42276 75.6796
rfemur 0.152792 8.21614 12.555
rtibia 7.20239
rfoot -6.92248 -8.24786
rtoes -15.8646
lfemur 0.720515 -6.97342 -19.1065
ltibia 7.9718
lfoot -11.9091 12.2645
ltoes 16.2972
520
root 11.1353 18.9248 10.0001 -148.76 -82.8421 152.15
lowerback -6.45461 -2.86495 -4.84824
upperback -0.0767995 -3.42889 -1.85341
thorax 3.70893 -1.78989 0.462616
lowerneck 2.97506 -15.4111 -15.4284
upperneck 16.3021 -25.2838 17.4953
head 8.84005 -12.5646 5.72791
rclavicle 9.81189e-015 -7.55382e-015
rhumerus -42.1577 31.7081 -103.2
rradius 110.832
rwrist 10.9281
rhand -40.872 38.137
rfingers 7.12502
rthumb -13.8083 8.61528
lclavicle 9.81189e-015 -7.55382e-015
lhumerus -21.7038 -25.2453 85.1893
lradius 120.132
lwrist -21.2775
lhand -17.7018 45.5802
lfingers 7.12502
lthumb 8.5581 75.3867
rfemur 0.211018 8.24706 12.4931
rtibia 7.15825
rfoot -6.79932 -8.23891
rtoes -15.652
lfemur 0.741195 -6.95794 -19.1696
ltibia 7.99104
lfoot -11.8758 12.2703
ltoes 16.2094
521
root 11.1319 18.9243 9.99509 -150.286 -82.752 153.601
lowerback -6.47926 -2.85855 -4.7518
upperback -0.0550818 -3.42518 -1.80242
thorax 3.7426 -1.78682 0.460155
lowerneck 2.96041 -15.1145 -15.5496
upperneck 16.4032 -24.9013 17.6028
head 8.83696 -12.3874 5.84711
rclavicle 1.68408e-014 2.54444e-014
rhumerus -41.719 32.2744 -102.779
rradius 111.595
rwrist 10.7144
rhand -38.1401 41.2871
rfingers 7.12502
rthumb -11.1744 11.6047
lclavicle 1.68408e-014 2.54444e-014
lhumerus -22.2011 -24.6066 85.2042
lradius 119.994
lwrist -21.7505
lhand -18.4047 45.8147
lfingers 7.12502
lthumb 7.87978 75.6479
rfemur 0.314693 8.43956 12.6471
rtibia 7.10292
rfoot -6.91161 -8.34162
rtoes -15.4894
lfemur 0.858354 -6.78958 -19.0452
ltibia 7.99977
lfoot -11.8863 12.2813
ltoes 16.4263
